<?xml version="1.0" encoding="utf-8"?>
<!-- Generator: Adobe Illustrator 23.0.3, SVG Export Plug-In . SVG Version: 6.00 Build 0)  -->
<svg version="1.1" id="Layer_1" xmlns="http://www.w3.org/2000/svg" xmlns:xlink="http://www.w3.org/1999/xlink" x="0px" y="0px"
	 viewBox="0 0 850.39 850.39" style="enable-background:new 0 0 850.39 850.39;" xml:space="preserve">
<style type="text/css">
	.st0{fill:#0054A6;}
	.st1{fill:#43B649;}
	.st2{fill:#FFFFFF;}
</style>
<path id="icon_14_" class="st2" d="M297.73,626.27c-3.43-2.17-21.83-15.57-25-18.06c-47.25-37.19-76.16-85.87-85.88-144.93
	c-7.26-44.13-1.84-87.5,16.48-128.71c21.51-48.38,55.42-85.47,102.13-110.6c22.12-11.9,45.53-19.68,70.48-23.86
	c14.02-2.35,28.24-3.52,42.46-3.32c5.85,0.08,11.7,0.4,17.53,0.95c2.81,0.26,5.61,0.64,8.41,0.92c2.6,0.26,5.18,0.72,7.79,0.98
	c2.57,0.25,5.15,0.06,7.73-0.1c13.18-0.83,26.42-2.96,39.07-6.73c11.75-3.5,23.07-8.29,34.14-13.55c6.56-3.11,13.04-6.38,19.51-9.65
	c-76.62-43.36-199.07-56.07-303.99,15.91C131.98,265.5,85,422.21,153.01,558.53c23.59,47.29,58.12,85.23,102.67,114.01
	c41.06,26.53,123.55,52.8,145.5,45.55c-25.53-6.59-50.39-21.86-69.18-40.78C312.27,657.47,303.32,641.65,297.73,626.27z
	 M402.25,246.53c-50.73,14.96-83.23,48.49-93.43,101.2c-2.79,14.44-4.79,27.51-5.65,42.19c-0.35,5.89-0.07,12.76,1.23,19.11
	c1.89-5.42,4.08-10.75,5.79-16.23c6.94-19.52,17.97-36.3,33.1-50.49c30.48-28.59,68.85-40.13,108.1-48.68
	c32.05-6.98,64.8-10.74,96.95-17.34c22.86-4.69,45.92-9.92,67.67-18.15c31.41-11.89,52.89-33.89,57.89-69.03
	c2.61-18.37,0.33-38.77-3.54-58.03c-1.49,3.58-2.79,5.85-3.27,6.89c-16.36,35.59-44.79,57.6-81.07,68.25
	c-33.75,9.9-68.84,15.23-103.33,22.62C455.84,234.58,428.52,238.78,402.25,246.53z M681.37,394.72
	c-14.63,12.11-27.15,24.66-34.75,45.27c-16.52,44.83-24.95,88.06-53.58,127.71c-25.32,35.07-61.17,61.25-104.91,66.47
	C389.98,645.9,317.3,554.2,319.82,461.6c-48.48,102.89,21.48,239.34,136.33,239.45c34.61,0.04,69.19-9.01,100.85-24.62
	c43.1-21.24,80.76-54.64,105.66-93.82c37.45-58.93,50.89-135.95,40.34-205.39C695.52,383.48,688.21,389.05,681.37,394.72z
	 M724.95,232.97c-1.24-5.73-2.74-11.4-3.98-16.5c-9.97,15.19-18.12,30.37-28.85,43.43c-27.69,33.7-66.58,48.7-107.15,59.13
	c-34.14,8.77-69.07,14.44-103.28,22.97c-25.94,6.47-52.04,13.46-76.78,23.42c-0.27,0.11-0.54,0.23-0.81,0.33
	c-39.94,14.36-72.11,80.8-47.29,138.8c1.48,3.45,4.26,6.35,6.65,9.59c2.87-18.06,14.2-35.97,26.32-53.61
	c13.88-20.23,35.22-31.89,57.66-40.89c23.64-9.48,48.35-16.02,73.52-19.89c32.6-5,64.96-11.44,97.36-17.62
	c46.31-15.21,95.06-41.69,107.13-87.01c0.46-1.84,0.84-3.69,1.2-5.55c0.28-1.45,0.6-2.9,0.82-4.36
	C730.11,268.14,728.77,250.63,724.95,232.97z"/>
</svg>
