<?xml version="1.0" encoding="utf-8"?>
<!-- Generator: Adobe Illustrator 23.0.3, SVG Export Plug-In . SVG Version: 6.00 Build 0)  -->
<svg version="1.1" id="Layer_1" xmlns="http://www.w3.org/2000/svg" xmlns:xlink="http://www.w3.org/1999/xlink" x="0px" y="0px"
	 viewBox="0 0 850.39 731.08" style="enable-background:new 0 0 850.39 731.08;" xml:space="preserve">
<style type="text/css">
	.st0{fill:#0054A6;}
	.st1{fill:#43B649;}
	.st2{fill:#FFFFFF;}
</style>
<path id="Artes_8_" class="st2" d="M448.5,503.03c-1.05-2.44-2.21-3.61-4.77-3.61h-11.17c-2.56,0-3.84,1.16-4.77,3.61l-25.84,69.71
	c-0.58,1.4-0.58,3.26,1.98,3.26h12.22c2.56,0,3.49-0.7,4.42-3.49l17.57-51.21l17.46,51.21c0.93,2.79,1.86,3.49,4.42,3.49h12.22
	c2.56,0,2.56-1.86,1.98-3.26L448.5,503.03z M530.89,548.42c7.22-2.44,16.18-10.94,16.18-23.16c0-7.45-2.44-14.08-6.75-18.27
	c-4.89-4.89-10.47-7.45-23.16-7.45h-29.33c-2.68,0-3.26,1.28-3.26,3.37v69.71c0,2.68,1.16,3.37,3.26,3.37h11.52
	c2.09,0,3.37-0.7,3.37-3.37v-56.79h15.48c6.05,0,10.71,3.84,10.71,9.89c0,5.47-5.35,9.43-11.06,9.43h-2.33
	c-2.68,0-3.37,1.28-3.37,3.37v9.31c0,3.26,0.23,4.54,1.28,5.93L526,572.51c1.63,2.44,3.03,3.49,5.82,3.49h13.73
	c2.21,0,2.79-2.09,1.75-3.72L530.89,548.42z M685.78,512.46v-9.66c0-2.09-0.7-3.37-3.37-3.37h-50.16c-2.68,0-3.38,1.28-3.38,3.37
	v13.03h53.53C685.09,515.83,685.78,514.55,685.78,512.46z M684.39,559.71h-37.12v-15.36h31.19c2.68,0,3.37-1.28,3.37-3.37v-9.08
	c0-2.09-0.7-3.37-3.37-3.37h-49.58v44.11c0,2.09,0.7,3.37,3.38,3.37h52.14c2.68,0,3.37-1.28,3.37-3.37v-9.54
	C687.76,560.99,687.06,559.71,684.39,559.71z M737.92,531.55c-4.66-1.86-21.76-4.42-21.76-11.52c0-5.24,6.4-6.75,10.24-6.75
	c3.49,0,7.68,1.05,9.89,3.14c1.4,1.4,1.98,2.33,2.44,3.49c0.58,1.51,0.93,3.14,3.14,3.14h11.41c2.68,0,3.37-0.47,3.37-3.26
	c0-15.36-16.18-22.11-30.96-22.11c-14.55,0.58-28.28,8.03-28.28,23.16c0,14.78,10.82,19.43,22.58,23.16
	c9.89,3.14,20.25,3.26,20.25,9.78c0,6.52-5.12,7.91-11.41,7.91c-4.31,0-9.08-1.05-11.4-3.84c-1.51-1.75-2.09-3.26-2.21-4.77
	c-0.23-2.91-1.51-3.26-4.19-3.26h-11.29c-2.68,0-3.37,0.58-3.37,3.26c0,16.29,16.76,24.67,31.31,24.67
	c17.92,0,30.96-7.91,30.96-24.44C758.63,537.48,746.3,534.11,737.92,531.55z M613.87,499.43h-54c-2.68,0-3.37,1.28-3.37,3.37v9.66
	c0,2.09,0.7,3.37,3.37,3.37h17.92v56.79c0,2.68,1.28,3.37,3.38,3.37h11.52c2.1,0,3.38-0.7,3.38-3.37v-56.79h17.81
	c2.68,0,3.37-1.28,3.37-3.37v-9.66C617.24,500.71,616.54,499.43,613.87,499.43z"/>
<path id="Flow_8_" class="st2" d="M144.42,499.43H94.37c-2.68,0-3.38,1.28-3.38,3.37v12.92h53.42c2.68,0,3.37-1.28,3.37-3.37v-9.54
	C147.79,500.71,147.09,499.43,144.42,499.43z M212.84,559.71h-33.52V502.8c0-2.68-1.28-3.37-3.38-3.37h-11.52
	c-2.09,0-3.38,0.7-3.38,3.37v69.83c0,2.09,0.7,3.37,3.38,3.37h48.41c2.68,0,3.37-1.28,3.37-3.37v-9.54
	C216.22,560.99,215.52,559.71,212.84,559.71z M139.53,529.33H91v43.29c0,2.09,0.7,3.37,3.38,3.37h11.52c2.68,0,3.38-0.47,3.38-3.49
	v-27.23h30.26c2.68,0,3.38-1.28,3.38-3.38v-9.19C142.9,530.61,142.21,529.33,139.53,529.33z M257.65,497.68
	c-13.85,0-31.07,7.91-31.07,26.3v27.47c0,18.39,17.22,26.3,31.07,26.3c13.85,0,31.31-7.91,31.31-26.3v-27.47
	C288.95,505.59,271.49,497.68,257.65,497.68z M270.68,549.82c0,7.45-5.35,11.75-13.03,11.75c-7.56,0-12.92-4.31-12.92-11.75v-24.21
	c0-7.45,5.35-11.75,12.92-11.75c7.68,0,13.03,4.31,13.03,11.75V549.82z M395.2,499.43h-12.34c-3.49,0-4.31,2.33-4.65,3.72
	l-11.52,39.57l-11.29-39.57c-0.47-1.63-1.28-3.72-3.84-3.72h-8.15c-2.68,0-3.49,2.09-3.96,3.72l-11.17,39.57l-11.52-39.57
	c-0.47-1.4-1.16-3.72-4.65-3.72h-12.8c-2.09,0-2.44,1.98-2.09,3.37l21.53,70.76c0,0,0.58,2.44,3.14,2.44h10.24
	c3.03,0,3.72-2.68,3.72-2.68l11.64-37.12l11.64,37.12c0,0,0.7,2.68,3.72,2.68h9.78c2.56,0,3.14-2.44,3.14-2.44l21.41-70.76
	C397.64,501.4,397.3,499.43,395.2,499.43z"/>
<path id="tagline_5_" class="st2" d="M665.93,596.86l-5.69,14.98c-1.16,3.07-2.21,6.37-3.15,9.91c-0.73-2.58-1.37-4.75-1.93-6.48
	c-0.56-1.74-2.74-7.87-6.55-18.41h-5.49l-2.13,30.56h3.99l0.82-12.83c0.21-3.49,0.42-8.09,0.63-13.78c0.71,2.63,1.39,4.97,2.05,7.02
	c0.66,2.05,2.87,8.51,6.65,19.37h3.22l5.87-15.85c1.33-3.61,2.52-7.13,3.56-10.54c0.08,1.87,0.23,5.21,0.48,10l0.88,16.62h4.13
	l-1.9-30.56H665.93z M196.76,599.35v-2.49h-21.54v3.49h16l-17.5,24.66v2.4h23.3v-3.49h-17.68L196.76,599.35z M204.29,627.42h4.22
	v-30.56h-4.22V627.42z M242.24,627.42h4.22v-30.56h-4.22V627.42z M221.97,596.86h-4.22v30.56h17.73v-3.54h-13.51V596.86z
	 M153.06,596.86l-10.7,30.56h4.4l3.22-9.52h11.15l3.35,9.52h4.53l-10.79-30.56H153.06z M150.83,614.63
	c2.42-6.94,3.96-11.67,4.62-14.19c0.47,1.78,2.07,6.51,4.81,14.19H150.83z M102.91,611.05c1.65-0.65,2.93-1.58,3.84-2.79
	c0.91-1.21,1.37-2.55,1.37-4.01c0-2.28-0.91-4.13-2.72-5.54c-1.81-1.41-4.67-2.12-8.57-2.12c-2.95,0-5.47,0.23-7.57,0.68v30.06
	c2.46,0.24,4.59,0.36,6.39,0.36c4.91,0,8.41-0.85,10.51-2.55c2.09-1.7,3.14-3.84,3.14-6.43c0-1.92-0.58-3.56-1.75-4.91
	C106.4,612.45,104.85,611.53,102.91,611.05z M93.48,600.08c0.85-0.18,2.07-0.27,3.67-0.27c4.47,0,6.71,1.63,6.71,4.9
	c0,1.5-0.6,2.71-1.79,3.64c-1.19,0.93-2.82,1.39-4.87,1.39h-3.72V600.08z M102.76,622.94c-1.4,0.99-3.34,1.48-5.84,1.48
	c-1.59,0-2.74-0.06-3.45-0.18v-11.38h3.4c2.46,0,4.41,0.5,5.84,1.5c1.43,1,2.14,2.42,2.14,4.26
	C104.86,620.51,104.16,621.95,102.76,622.94z M736.79,596.86v3.54h9.66v27.02h4.22v-27.02h9.7v-3.54H736.79z M685.92,613.22h12.29
	v-3.49h-12.29v-9.39h13.01v-3.49H681.7v30.56h17.95v-3.49h-13.74V613.22z M130.7,612.73c1.83-0.62,3.26-1.61,4.3-2.98
	c1.04-1.37,1.55-2.96,1.55-4.77c0-2.57-0.92-4.61-2.77-6.12c-1.84-1.51-4.79-2.27-8.84-2.27c-2.93,0-5.59,0.23-7.98,0.68v30.15h4.22
	v-13.15h3.85c1.75,0,3.11,0.45,4.06,1.34c0.95,0.89,1.67,2.41,2.15,4.56c0.94,4.13,1.62,6.54,2.04,7.25h4.35
	c-0.39-0.65-1.21-3.48-2.45-8.48C134.41,615.66,132.91,613.59,130.7,612.73z M125.4,611.09h-4.22v-10.93
	c0.95-0.24,2.31-0.36,4.08-0.36c2.28,0,4.03,0.48,5.25,1.44c1.22,0.96,1.83,2.35,1.83,4.18c0,1.72-0.63,3.1-1.88,4.13
	C129.2,610.58,127.52,611.09,125.4,611.09z M727.09,609.6c0,5.5,0.15,9.64,0.45,12.42c-1.53-3.13-3.43-6.42-5.71-9.88l-10.02-15.28
	h-4.71v30.56h3.94v-13.1c0-5.36-0.09-9.52-0.27-12.47c1.53,2.96,3.54,6.38,6.03,10.25l9.93,15.32h4.31v-30.56h-3.94V609.6z
	 M487.65,609.6c0,5.5,0.15,9.64,0.45,12.42c-1.53-3.13-3.43-6.42-5.71-9.88l-10.02-15.28h-4.71v30.56h3.94v-13.1
	c0-5.36-0.09-9.52-0.27-12.47c1.53,2.96,3.54,6.38,6.03,10.25l9.93,15.32h4.31v-30.56h-3.94V609.6z M387.59,600.39h9.66v27.02h4.22
	v-27.02h9.7v-3.54h-23.58V600.39z M454.19,627.42h4.22v-30.56h-4.22V627.42z M264.04,596.86l-10.7,30.56h4.4l3.22-9.52h11.15
	l3.35,9.52H280l-10.79-30.56H264.04z M261.82,614.63c2.42-6.94,3.96-11.67,4.62-14.19c0.47,1.78,2.07,6.51,4.81,14.19H261.82z
	 M537.21,596.86l-5.69,14.98c-1.16,3.07-2.21,6.37-3.15,9.91c-0.73-2.58-1.37-4.75-1.93-6.48c-0.56-1.74-2.74-7.87-6.55-18.41h-5.49
	l-2.13,30.56h3.99l0.82-12.83c0.21-3.49,0.42-8.09,0.63-13.78c0.71,2.63,1.39,4.97,2.05,7.02c0.66,2.05,2.87,8.51,6.65,19.37h3.22
	l5.87-15.85c1.33-3.61,2.52-7.13,3.56-10.54c0.08,1.87,0.23,5.21,0.48,10l0.88,16.62h4.13l-1.9-30.56H537.21z M565.95,596.36
	c-4.29,0-7.83,1.49-10.61,4.48c-2.78,2.99-4.17,6.86-4.17,11.62c0,4.55,1.34,8.26,4.02,11.14c2.68,2.88,6.15,4.32,10.39,4.32
	c4.34,0,7.89-1.46,10.67-4.38c2.77-2.92,4.16-6.82,4.16-11.72c0-4.55-1.34-8.26-4.01-11.14
	C573.73,597.8,570.25,596.36,565.95,596.36z M573.12,621.01c-1.87,2.34-4.35,3.5-7.44,3.5c-2.98,0-5.41-1.18-7.29-3.53
	c-1.88-2.35-2.82-5.24-2.82-8.67c0-3.64,0.92-6.65,2.77-9.01c1.84-2.36,4.32-3.55,7.44-3.55c3.07,0,5.53,1.19,7.38,3.56
	c1.85,2.37,2.78,5.27,2.78,8.68C575.93,615.67,574.99,618.68,573.12,621.01z M426.18,610.01c-2.42-0.88-4.07-1.73-4.94-2.56
	c-0.88-0.83-1.32-1.88-1.32-3.15c0-1.25,0.51-2.32,1.54-3.19c1.03-0.87,2.46-1.3,4.31-1.3c2.3,0,4.32,0.5,6.08,1.5l1.13-3.4
	c-1.81-1.03-4.17-1.54-7.07-1.54c-3.02,0-5.49,0.79-7.39,2.37c-1.9,1.58-2.86,3.59-2.86,6.02c0,2,0.67,3.7,2.02,5.1
	c1.34,1.41,3.47,2.61,6.37,3.6c2.12,0.71,3.63,1.52,4.56,2.41c0.92,0.9,1.38,2.06,1.38,3.48c0,1.54-0.58,2.77-1.75,3.7
	c-1.16,0.92-2.74,1.38-4.74,1.38c-2.64,0-5.11-0.68-7.39-2.04l-1.09,3.49c0.94,0.6,2.17,1.1,3.7,1.47c1.53,0.38,3.02,0.57,4.47,0.57
	c3.48,0,6.19-0.83,8.14-2.48c1.95-1.66,2.92-3.79,2.92-6.4c0-2.13-0.62-3.9-1.86-5.32C431.15,612.3,429.08,611.06,426.18,610.01z
	 M620.59,613.22h12.29v-3.49h-12.29v-9.39h13.01v-3.49h-17.23v30.56h17.95v-3.49h-13.74V613.22z M306.8,609.6
	c0,5.5,0.15,9.64,0.45,12.42c-1.53-3.13-3.43-6.42-5.71-9.88l-10.02-15.28h-4.72v30.56h3.94v-13.1c0-5.36-0.09-9.52-0.27-12.47
	c1.53,2.96,3.54,6.38,6.03,10.25l9.93,15.32h4.31v-30.56h-3.94V609.6z M377.03,612.73c1.83-0.62,3.26-1.61,4.3-2.98
	c1.03-1.37,1.55-2.96,1.55-4.77c0-2.57-0.92-4.61-2.77-6.12c-1.84-1.51-4.79-2.27-8.84-2.27c-2.93,0-5.59,0.23-7.98,0.68v30.15h4.22
	v-13.15h3.85c1.75,0,3.11,0.45,4.06,1.34c0.95,0.89,1.67,2.41,2.15,4.56c0.94,4.13,1.62,6.54,2.04,7.25h4.35
	c-0.39-0.65-1.21-3.48-2.45-8.48C380.73,615.66,379.23,613.59,377.03,612.73z M371.72,611.09h-4.22v-10.93
	c0.95-0.24,2.31-0.36,4.08-0.36c2.28,0,4.03,0.48,5.25,1.44c1.22,0.96,1.83,2.35,1.83,4.18c0,1.72-0.63,3.1-1.88,4.13
	C375.52,610.58,373.84,611.09,371.72,611.09z M601,611.91c-1.6,4.52-2.8,8.28-3.58,11.29c-0.6-2.22-1.47-5.07-2.58-8.55l-5.76-17.8
	h-4.58l10.34,30.56h4.72l11.29-30.56h-4.49L601,611.91z M340.53,596.86l-10.7,30.56h4.4l3.22-9.52h11.15l3.36,9.52h4.53
	l-10.79-30.56H340.53z M338.31,614.63c2.42-6.94,3.96-11.67,4.62-14.19c0.47,1.78,2.07,6.51,4.81,14.19H338.31z"/>
<path id="icon_8_" class="st2" d="M350.67,390.59c-1.99-1.26-12.7-9.05-14.54-10.51c-27.48-21.63-44.3-49.95-49.95-84.3
	c-4.22-25.67-1.07-50.9,9.59-74.87c12.51-28.14,32.24-49.72,59.41-64.34c12.87-6.92,26.49-11.45,41-13.88
	c8.15-1.37,16.43-2.05,24.7-1.93c3.41,0.05,6.81,0.23,10.2,0.55c1.63,0.15,3.26,0.37,4.89,0.54c1.51,0.15,3.02,0.42,4.53,0.57
	c1.49,0.15,3,0.03,4.5-0.06c7.66-0.48,15.37-1.72,22.72-3.91c6.84-2.04,13.42-4.82,19.86-7.88c3.81-1.81,7.58-3.71,11.35-5.62
	c-44.57-25.22-115.8-32.62-176.82,9.25c-67.83,46.54-95.16,137.69-55.6,216.99c13.72,27.51,33.81,49.58,59.72,66.32
	c23.88,15.43,71.87,30.71,84.63,26.49c-14.85-3.84-29.31-12.71-40.24-23.72C359.13,408.74,353.92,399.54,350.67,390.59z
	 M411.47,169.71c-29.51,8.7-48.41,28.2-54.35,58.86c-1.63,8.4-2.79,16-3.29,24.54c-0.2,3.42-0.04,7.42,0.72,11.12
	c1.1-3.15,2.37-6.26,3.37-9.44c4.04-11.35,10.46-21.11,19.26-29.37c17.73-16.63,40.05-23.34,62.88-28.32
	c18.65-4.06,37.69-6.25,56.39-10.09c13.3-2.73,26.71-5.77,39.36-10.56c18.27-6.91,30.77-19.71,33.68-40.15
	c1.52-10.68,0.19-22.55-2.06-33.76c-0.86,2.08-1.62,3.4-1.9,4.01c-9.51,20.7-26.05,33.51-47.16,39.7
	c-19.63,5.76-40.04,8.86-60.11,13.16C442.64,162.76,426.75,165.2,411.47,169.71z M573.83,255.91c-8.51,7.05-15.79,14.35-20.21,26.34
	c-9.61,26.08-14.51,51.22-31.17,74.29c-14.73,20.4-35.58,35.63-61.03,38.67c-57.09,6.82-99.37-46.52-97.9-100.38
	c-28.2,59.85,12.49,139.22,79.3,139.29c20.13,0.02,40.25-5.24,58.66-14.32c25.07-12.36,46.98-31.78,61.46-54.57
	c21.78-34.28,29.6-79.08,23.46-119.47C582.06,249.37,577.81,252.61,573.83,255.91z M599.18,161.82c-0.72-3.33-1.6-6.63-2.32-9.6
	c-5.8,8.83-10.54,17.66-16.78,25.26c-16.11,19.6-38.73,28.33-62.33,34.39c-19.86,5.1-40.18,8.4-60.07,13.36
	c-15.09,3.76-30.27,7.83-44.66,13.62c-0.16,0.06-0.31,0.13-0.47,0.19c-23.24,8.35-41.95,47-27.51,80.74
	c0.86,2.01,2.48,3.69,3.87,5.58c1.67-10.51,8.26-20.92,15.31-31.18c8.08-11.77,20.49-18.55,33.54-23.79
	c13.75-5.51,28.13-9.32,42.77-11.57c18.96-2.91,37.79-6.65,56.63-10.25c26.94-8.85,55.29-24.25,62.31-50.61
	c0.27-1.07,0.49-2.15,0.7-3.23c0.17-0.84,0.35-1.69,0.48-2.53C602.18,182.28,601.4,172.09,599.18,161.82z"/>
</svg>
