<?xml version="1.0" encoding="utf-8"?>
<!-- Generator: Adobe Illustrator 23.0.3, SVG Export Plug-In . SVG Version: 6.00 Build 0)  -->
<svg version="1.1" id="Layer_1" xmlns="http://www.w3.org/2000/svg" xmlns:xlink="http://www.w3.org/1999/xlink" x="0px" y="0px"
	 viewBox="0 0 850.39 666.14" style="enable-background:new 0 0 850.39 666.14;" xml:space="preserve">
<style type="text/css">
	.st0{fill:#0054A6;}
	.st1{fill:#43B649;}
	.st2{fill:#FFFFFF;}
</style>
<path id="Artes_11_" class="st2" d="M448.5,503.03c-1.05-2.44-2.21-3.61-4.77-3.61h-11.17c-2.56,0-3.84,1.16-4.77,3.61l-25.84,69.71
	c-0.58,1.4-0.58,3.26,1.98,3.26h12.22c2.56,0,3.49-0.7,4.42-3.49l17.57-51.21l17.46,51.21c0.93,2.79,1.86,3.49,4.42,3.49h12.22
	c2.56,0,2.56-1.86,1.98-3.26L448.5,503.03z M530.89,548.42c7.22-2.44,16.18-10.94,16.18-23.16c0-7.45-2.44-14.08-6.75-18.27
	c-4.89-4.89-10.47-7.45-23.16-7.45h-29.33c-2.68,0-3.26,1.28-3.26,3.37v69.71c0,2.68,1.16,3.37,3.26,3.37h11.52
	c2.09,0,3.37-0.7,3.37-3.37v-56.79h15.48c6.05,0,10.71,3.84,10.71,9.89c0,5.47-5.35,9.43-11.06,9.43h-2.33
	c-2.68,0-3.37,1.28-3.37,3.37v9.31c0,3.26,0.23,4.54,1.28,5.93L526,572.51c1.63,2.44,3.03,3.49,5.82,3.49h13.73
	c2.21,0,2.79-2.09,1.75-3.72L530.89,548.42z M685.78,512.46v-9.66c0-2.09-0.7-3.37-3.37-3.37h-50.16c-2.68,0-3.38,1.28-3.38,3.37
	v13.03h53.53C685.09,515.83,685.78,514.55,685.78,512.46z M684.39,559.71h-37.12v-15.36h31.19c2.68,0,3.37-1.28,3.37-3.37v-9.08
	c0-2.09-0.7-3.37-3.37-3.37h-49.58v44.11c0,2.09,0.7,3.37,3.38,3.37h52.14c2.68,0,3.37-1.28,3.37-3.37v-9.54
	C687.76,560.99,687.06,559.71,684.39,559.71z M737.92,531.55c-4.66-1.86-21.76-4.42-21.76-11.52c0-5.24,6.4-6.75,10.24-6.75
	c3.49,0,7.68,1.05,9.89,3.14c1.4,1.4,1.98,2.33,2.44,3.49c0.58,1.51,0.93,3.14,3.14,3.14h11.41c2.68,0,3.37-0.47,3.37-3.26
	c0-15.36-16.18-22.11-30.96-22.11c-14.55,0.58-28.28,8.03-28.28,23.16c0,14.78,10.82,19.43,22.58,23.16
	c9.89,3.14,20.25,3.26,20.25,9.78c0,6.52-5.12,7.91-11.41,7.91c-4.31,0-9.08-1.05-11.4-3.84c-1.51-1.75-2.09-3.26-2.21-4.77
	c-0.23-2.91-1.51-3.26-4.19-3.26h-11.29c-2.68,0-3.37,0.58-3.37,3.26c0,16.29,16.76,24.67,31.31,24.67
	c17.92,0,30.96-7.91,30.96-24.44C758.63,537.48,746.3,534.11,737.92,531.55z M613.87,499.43h-54c-2.68,0-3.37,1.28-3.37,3.37v9.66
	c0,2.09,0.7,3.37,3.37,3.37h17.92v56.79c0,2.68,1.28,3.37,3.38,3.37h11.52c2.1,0,3.38-0.7,3.38-3.37v-56.79h17.81
	c2.68,0,3.37-1.28,3.37-3.37v-9.66C617.24,500.71,616.54,499.43,613.87,499.43z"/>
<path id="Flow_11_" class="st2" d="M144.42,499.43H94.37c-2.68,0-3.38,1.28-3.38,3.37v12.92h53.42c2.68,0,3.37-1.28,3.37-3.37v-9.54
	C147.79,500.71,147.09,499.43,144.42,499.43z M212.84,559.71h-33.52V502.8c0-2.68-1.28-3.37-3.38-3.37h-11.52
	c-2.09,0-3.38,0.7-3.38,3.37v69.83c0,2.09,0.7,3.37,3.38,3.37h48.41c2.68,0,3.37-1.28,3.37-3.37v-9.54
	C216.22,560.99,215.52,559.71,212.84,559.71z M139.53,529.33H91v43.29c0,2.09,0.7,3.37,3.38,3.37h11.52c2.68,0,3.38-0.47,3.38-3.49
	v-27.23h30.26c2.68,0,3.38-1.28,3.38-3.38v-9.19C142.9,530.61,142.21,529.33,139.53,529.33z M257.65,497.68
	c-13.85,0-31.07,7.91-31.07,26.3v27.47c0,18.39,17.22,26.3,31.07,26.3c13.85,0,31.31-7.91,31.31-26.3v-27.47
	C288.95,505.59,271.49,497.68,257.65,497.68z M270.68,549.82c0,7.45-5.35,11.75-13.03,11.75c-7.56,0-12.92-4.31-12.92-11.75v-24.21
	c0-7.45,5.35-11.75,12.92-11.75c7.68,0,13.03,4.31,13.03,11.75V549.82z M395.2,499.43h-12.34c-3.49,0-4.31,2.33-4.65,3.72
	l-11.52,39.57l-11.29-39.57c-0.47-1.63-1.28-3.72-3.84-3.72h-8.15c-2.68,0-3.49,2.09-3.96,3.72l-11.17,39.57l-11.52-39.57
	c-0.47-1.4-1.16-3.72-4.65-3.72h-12.8c-2.09,0-2.44,1.98-2.09,3.37l21.53,70.76c0,0,0.58,2.44,3.14,2.44h10.24
	c3.03,0,3.72-2.68,3.72-2.68l11.64-37.12l11.64,37.12c0,0,0.7,2.68,3.72,2.68h9.78c2.56,0,3.14-2.44,3.14-2.44l21.41-70.76
	C397.64,501.4,397.3,499.43,395.2,499.43z"/>
<path id="icon_11_" class="st2" d="M350.67,390.59c-1.99-1.26-12.7-9.05-14.54-10.51c-27.48-21.63-44.3-49.95-49.95-84.3
	c-4.22-25.67-1.07-50.9,9.59-74.87c12.51-28.14,32.24-49.72,59.41-64.34c12.87-6.92,26.49-11.45,41-13.88
	c8.15-1.37,16.43-2.05,24.7-1.93c3.41,0.05,6.81,0.23,10.2,0.55c1.63,0.15,3.26,0.37,4.89,0.54c1.51,0.15,3.02,0.42,4.53,0.57
	c1.49,0.15,3,0.03,4.5-0.06c7.66-0.48,15.37-1.72,22.72-3.91c6.84-2.04,13.42-4.82,19.86-7.88c3.81-1.81,7.58-3.71,11.35-5.62
	c-44.57-25.22-115.8-32.62-176.82,9.25c-67.83,46.54-95.16,137.69-55.6,216.99c13.72,27.51,33.81,49.58,59.72,66.32
	c23.88,15.43,71.87,30.71,84.63,26.49c-14.85-3.84-29.31-12.71-40.24-23.72C359.13,408.74,353.92,399.54,350.67,390.59z
	 M411.47,169.71c-29.51,8.7-48.41,28.2-54.35,58.86c-1.63,8.4-2.79,16-3.29,24.54c-0.2,3.42-0.04,7.42,0.72,11.12
	c1.1-3.15,2.37-6.26,3.37-9.44c4.04-11.35,10.46-21.11,19.26-29.37c17.73-16.63,40.05-23.34,62.88-28.32
	c18.65-4.06,37.69-6.25,56.39-10.09c13.3-2.73,26.71-5.77,39.36-10.56c18.27-6.91,30.77-19.71,33.68-40.15
	c1.52-10.68,0.19-22.55-2.06-33.76c-0.86,2.08-1.62,3.4-1.9,4.01c-9.51,20.7-26.05,33.51-47.16,39.7
	c-19.63,5.76-40.04,8.86-60.11,13.16C442.64,162.76,426.75,165.2,411.47,169.71z M573.83,255.91c-8.51,7.05-15.79,14.35-20.21,26.34
	c-9.61,26.08-14.51,51.22-31.17,74.29c-14.73,20.4-35.58,35.63-61.03,38.67c-57.09,6.82-99.37-46.52-97.9-100.38
	c-28.2,59.85,12.49,139.22,79.3,139.29c20.13,0.02,40.25-5.24,58.66-14.32c25.07-12.36,46.98-31.78,61.46-54.57
	c21.78-34.28,29.6-79.08,23.46-119.47C582.06,249.37,577.81,252.61,573.83,255.91z M599.18,161.82c-0.72-3.33-1.6-6.63-2.32-9.6
	c-5.8,8.83-10.54,17.66-16.78,25.26c-16.11,19.6-38.73,28.33-62.33,34.39c-19.86,5.1-40.18,8.4-60.07,13.36
	c-15.09,3.76-30.27,7.83-44.66,13.62c-0.16,0.06-0.31,0.13-0.47,0.19c-23.24,8.35-41.95,47-27.51,80.74
	c0.86,2.01,2.48,3.69,3.87,5.58c1.67-10.51,8.26-20.92,15.31-31.18c8.08-11.77,20.49-18.55,33.54-23.79
	c13.75-5.51,28.13-9.32,42.77-11.57c18.96-2.91,37.79-6.65,56.63-10.25c26.94-8.85,55.29-24.25,62.31-50.61
	c0.27-1.07,0.49-2.15,0.7-3.23c0.17-0.84,0.35-1.69,0.48-2.53C602.18,182.28,601.4,172.09,599.18,161.82z"/>
</svg>
