<?xml version="1.0" encoding="utf-8"?>
<!-- Generator: Adobe Illustrator 23.0.3, SVG Export Plug-In . SVG Version: 6.00 Build 0)  -->
<svg version="1.1" id="Layer_1" xmlns="http://www.w3.org/2000/svg" xmlns:xlink="http://www.w3.org/1999/xlink" x="0px" y="0px"
	 viewBox="0 0 884.18 281.27" style="enable-background:new 0 0 884.18 281.27;" xml:space="preserve">
<style type="text/css">
	.st0{fill:#0054A6;}
	.st1{fill:#43B649;}
	.st2{fill:#FFFFFF;}
</style>
<path id="Artes_4_" d="M566.57,108.35c-0.86-2.02-1.83-2.98-3.94-2.98h-9.22c-2.11,0-3.17,0.96-3.94,2.98l-21.33,57.56
	c-0.48,1.15-0.48,2.69,1.63,2.69h10.09c2.11,0,2.88-0.58,3.65-2.88l14.51-42.28l14.41,42.28c0.77,2.31,1.54,2.88,3.65,2.88h10.09
	c2.11,0,2.11-1.54,1.63-2.69L566.57,108.35z M634.6,145.82c5.96-2.02,13.36-9.03,13.36-19.12c0-6.15-2.02-11.63-5.57-15.09
	c-4.04-4.04-8.65-6.15-19.12-6.15h-24.21c-2.21,0-2.69,1.06-2.69,2.79v57.56c0,2.21,0.96,2.79,2.69,2.79h9.51
	c1.73,0,2.79-0.58,2.79-2.79v-46.89h12.78c5,0,8.84,3.17,8.84,8.17c0,4.52-4.42,7.78-9.13,7.78h-1.92c-2.21,0-2.79,1.06-2.79,2.79
	v7.69c0,2.69,0.19,3.75,1.06,4.9l10.38,15.47c1.34,2.02,2.5,2.88,4.8,2.88h11.34c1.83,0,2.31-1.73,1.44-3.07L634.6,145.82z
	 M762.48,116.13v-7.98c0-1.73-0.58-2.79-2.79-2.79h-41.41c-2.21,0-2.79,1.06-2.79,2.79v10.76h44.2
	C761.91,118.92,762.48,117.86,762.48,116.13z M761.33,155.14h-30.65v-12.68h25.75c2.21,0,2.79-1.06,2.79-2.79v-7.49
	c0-1.73-0.58-2.79-2.79-2.79H715.5v36.42c0,1.73,0.58,2.79,2.79,2.79h43.05c2.21,0,2.79-1.06,2.79-2.79v-7.88
	C764.12,156.2,763.54,155.14,761.33,155.14z M805.53,131.89c-3.84-1.54-17.97-3.65-17.97-9.51c0-4.32,5.28-5.57,8.46-5.57
	c2.88,0,6.34,0.86,8.17,2.59c1.15,1.15,1.63,1.92,2.02,2.88c0.48,1.25,0.77,2.59,2.59,2.59h9.42c2.21,0,2.79-0.38,2.79-2.69
	c0-12.68-13.36-18.26-25.56-18.26c-12.01,0.48-23.35,6.63-23.35,19.12c0,12.2,8.94,16.05,18.64,19.12
	c8.17,2.59,16.72,2.69,16.72,8.07s-4.23,6.53-9.42,6.53c-3.55,0-7.49-0.86-9.42-3.17c-1.25-1.44-1.73-2.69-1.83-3.94
	c-0.19-2.4-1.25-2.69-3.46-2.69h-9.32c-2.21,0-2.79,0.48-2.79,2.69c0,13.45,13.84,20.37,25.85,20.37c14.8,0,25.56-6.53,25.56-20.18
	C822.63,136.79,812.45,134.01,805.53,131.89z M703.11,105.37h-44.58c-2.21,0-2.79,1.06-2.79,2.79v7.98c0,1.73,0.58,2.79,2.79,2.79
	h14.8v46.89c0,2.21,1.06,2.79,2.79,2.79h9.51c1.73,0,2.79-0.58,2.79-2.79v-46.89h14.7c2.21,0,2.79-1.06,2.79-2.79v-7.98
	C705.89,106.43,705.32,105.37,703.11,105.37z"/>
<path id="Flow_4_" d="M315.51,105.37h-41.32c-2.21,0-2.79,1.06-2.79,2.79v10.67h44.1c2.21,0,2.79-1.06,2.79-2.79v-7.88
	C318.3,106.43,317.72,105.37,315.51,105.37z M372.01,155.14h-27.67v-46.99c0-2.21-1.06-2.79-2.79-2.79h-9.51
	c-1.73,0-2.79,0.58-2.79,2.79v57.65c0,1.73,0.58,2.79,2.79,2.79h39.97c2.21,0,2.79-1.06,2.79-2.79v-7.88
	C374.79,156.2,374.22,155.14,372.01,155.14z M311.47,130.07h-40.07v35.74c0,1.73,0.58,2.79,2.79,2.79h9.51
	c2.21,0,2.79-0.38,2.79-2.88v-22.48h24.98c2.21,0,2.79-1.06,2.79-2.79v-7.59C314.26,131.12,313.68,130.07,311.47,130.07z
	 M409,103.93c-11.43,0-25.65,6.53-25.65,21.72v22.68c0,15.18,14.22,21.72,25.65,21.72c11.43,0,25.85-6.53,25.85-21.72v-22.68
	C434.84,110.46,420.43,103.93,409,103.93z M419.76,146.98c0,6.15-4.42,9.7-10.76,9.7c-6.25,0-10.67-3.56-10.67-9.7v-19.99
	c0-6.15,4.42-9.7,10.67-9.7c6.34,0,10.76,3.56,10.76,9.7V146.98z M522.57,105.37h-10.19c-2.88,0-3.55,1.92-3.84,3.07l-9.51,32.67
	l-9.32-32.67c-0.38-1.35-1.06-3.07-3.17-3.07h-6.73c-2.21,0-2.88,1.73-3.27,3.07l-9.22,32.67l-9.51-32.67
	c-0.38-1.15-0.96-3.07-3.84-3.07h-10.57c-1.73,0-2.02,1.63-1.73,2.79l17.78,58.42c0,0,0.48,2.02,2.59,2.02h8.46
	c2.5,0,3.07-2.21,3.07-2.21l9.61-30.65l9.61,30.65c0,0,0.58,2.21,3.07,2.21h8.07c2.11,0,2.59-2.02,2.59-2.02l17.68-58.42
	C524.59,107.01,524.3,105.37,522.57,105.37z"/>
<path id="icon_4_" d="M104.05,204.41c-1.07-0.68-6.8-4.85-7.79-5.62c-14.71-11.58-23.72-26.74-26.74-45.13
	c-2.26-13.74-0.57-27.25,5.13-40.08c6.7-15.07,17.26-26.62,31.8-34.44c6.89-3.71,14.18-6.13,21.95-7.43
	c4.37-0.73,8.79-1.1,13.22-1.03c1.82,0.03,3.65,0.12,5.46,0.3c0.87,0.08,1.75,0.2,2.62,0.29c0.81,0.08,1.61,0.22,2.43,0.3
	c0.8,0.08,1.6,0.02,2.41-0.03c4.1-0.26,8.23-0.92,12.17-2.09c3.66-1.09,7.18-2.58,10.63-4.22c2.04-0.97,4.06-1.99,6.08-3.01
	c-23.86-13.5-61.99-17.46-94.66,4.95c-36.32,24.92-50.94,73.71-29.76,116.17c7.35,14.73,18.1,26.54,31.97,35.5
	c12.79,8.26,38.48,16.44,45.31,14.18c-7.95-2.05-15.69-6.81-21.54-12.7C108.58,214.13,105.79,209.2,104.05,204.41z M136.6,86.16
	c-15.8,4.66-25.92,15.1-29.1,31.51c-0.87,4.5-1.49,8.57-1.76,13.14c-0.11,1.83-0.02,3.97,0.38,5.95c0.59-1.69,1.27-3.35,1.8-5.05
	c2.16-6.08,5.6-11.3,10.31-15.72c9.49-8.9,21.44-12.5,33.66-15.16c9.98-2.17,20.18-3.35,30.19-5.4c7.12-1.46,14.3-3.09,21.07-5.65
	c9.78-3.7,16.47-10.55,18.03-21.5c0.81-5.72,0.1-12.07-1.1-18.07c-0.46,1.12-0.87,1.82-1.02,2.15
	c-5.09,11.08-13.95,17.94-25.25,21.25c-10.51,3.08-21.44,4.74-32.18,7.04C153.29,82.44,144.78,83.74,136.6,86.16z M223.52,132.3
	c-4.56,3.77-8.45,7.68-10.82,14.1c-5.14,13.96-7.77,27.42-16.69,39.77c-7.89,10.92-19.05,19.07-32.67,20.7
	c-30.57,3.65-53.2-24.91-52.41-53.74c-15.1,32.04,6.69,74.53,42.45,74.57c10.78,0.01,21.55-2.81,31.41-7.67
	c13.42-6.62,25.15-17.02,32.9-29.22c11.66-18.35,15.85-42.34,12.56-63.96C227.93,128.81,225.65,130.54,223.52,132.3z M237.1,81.93
	c-0.39-1.78-0.85-3.55-1.24-5.14c-3.1,4.73-5.64,9.46-8.98,13.52c-8.62,10.49-20.73,15.17-33.37,18.41
	c-10.63,2.73-21.51,4.5-32.16,7.15c-8.08,2.01-16.21,4.19-23.91,7.29c-0.08,0.03-0.17,0.07-0.25,0.1
	c-12.44,4.47-22.46,25.16-14.73,43.22c0.46,1.07,1.33,1.98,2.07,2.99c0.89-5.62,4.42-11.2,8.19-16.7
	c4.32-6.3,10.97-9.93,17.96-12.73c7.36-2.95,15.06-4.99,22.9-6.19c10.15-1.56,20.23-3.56,30.32-5.49
	c14.42-4.74,29.6-12.98,33.36-27.1c0.14-0.57,0.26-1.15,0.37-1.73c0.09-0.45,0.19-0.9,0.26-1.36
	C238.7,92.89,238.28,87.43,237.1,81.93z"/>
</svg>
